<?xml version="1.0" encoding="UTF-8"?><svg id="Capa_2" xmlns="http://www.w3.org/2000/svg" viewBox="0 0 90.55 90.53"><defs><style>.cls-1{fill:#ee7779;}</style></defs><g id="Capa_1-2"><path class="cls-1" d="m9.37,72.84c7.57,1.01,14.43,1.2,20.62.75.14-.78.44-1.52.86-2.18-9.32-15.58-9.34-32.06-6.72-45.18-.68-.72-1.21-1.59-1.47-2.62-.03-.13-.03-.25-.06-.38-9.79.75-16.99,3.52-18.99,4.36C-.13,36.38-1.13,46.42,1.4,56.39c1.56,6.16,4.33,11.71,7.97,16.45Z"/><path class="cls-1" d="m5.82,23.1c6.14-2.07,11.93-3.26,17.35-3.72.72-1.36,1.94-2.43,3.51-2.91,2.38-7.35,5.12-12.68,6.25-14.74C20.99,5.11,11.49,13.01,5.82,23.1Z"/><path class="cls-1" d="m77.49,41.31c1.2-.3,2.4-.22,3.48.17,3.39-6.41,4.99-11.97,5.64-14.67C78.29,8.13,58.2-2.85,37.71.64c-3.02,5.58-5.37,10.9-7.1,15.95,1.31.52,2.42,1.49,3.1,2.77,19.11,1.68,33,12.4,42.11,22.68.51-.32,1.06-.59,1.67-.74Z"/><path class="cls-1" d="m74.65,51.2c-.69-.72-1.22-1.6-1.48-2.63-.32-1.25-.2-2.5.23-3.61-12.69-14.66-26.86-20.15-39.15-21.53-.47,2.13-2.08,3.93-4.34,4.51-.79.2-1.58.23-2.34.12-3.22,17.26.68,30.85,6.45,40.93.13-.04.24-.1.37-.13,2.77-.7,5.56.66,6.79,3.11,16.01-3.63,26.57-12.04,33.47-20.75Z"/><path class="cls-1" d="m13.06,77.06c9.07,9.17,21.85,14.25,35.16,13.37-4.22-3.22-7.8-6.59-10.82-10.04-.03,0-.05.02-.08.03-2.77.7-5.57-.66-6.8-3.11-7.6.62-13.91.16-17.46-.25Z"/><path class="cls-1" d="m88.63,32.28c-1.33,4.23-2.91,8.09-4.69,11.58.35.53.64,1.12.8,1.77.55,2.17-.18,4.34-1.69,5.78,2.4,3.56,4.08,6.57,5.06,8.47,2.75-8.02,3.28-16.9,1.04-25.74-.16-.63-.34-1.25-.52-1.86Z"/><path class="cls-1" d="m78.23,53.01c-10.18,13.54-23.97,19.86-36.5,22.63-.17.97-.58,1.87-1.18,2.64,5.05,5.97,10.11,9.79,12.69,11.54,1.05-.19,2.11-.4,3.16-.67,13.68-3.47,24.31-12.83,29.87-24.69-2.15-4.2-4.39-8.02-6.71-11.44-.45.05-.89.05-1.33,0Z"/></g></svg>